<svg width="48" height="48" viewBox="0 0 48 48" fill="none" xmlns="http://www.w3.org/2000/svg">
<mask id="mask0_483_197" style="mask-type:alpha" maskUnits="userSpaceOnUse" x="0" y="0" width="48" height="48">
<rect y="0.399963" width="47.2001" height="47.2001" fill="#D9D9D9"/>
</mask>
<g mask="url(#mask0_483_197)">
<path d="M9.83324 43.6667C8.75157 43.6667 7.8256 43.2816 7.05532 42.5113C6.28504 41.741 5.8999 40.8151 5.8999 39.7334V12.2C5.8999 11.1183 6.28504 10.1924 7.05532 9.42207C7.8256 8.65179 8.75157 8.26665 9.83324 8.26665H11.7999V4.33331H15.7333V8.26665H31.4666V4.33331H35.4V8.26665H37.3666C38.4483 8.26665 39.3743 8.65179 40.1446 9.42207C40.9148 10.1924 41.3 11.1183 41.3 12.2V39.7334C41.3 40.8151 40.9148 41.741 40.1446 42.5113C39.3743 43.2816 38.4483 43.6667 37.3666 43.6667H9.83324ZM9.83324 39.7334H37.3666V20.0667H9.83324V39.7334ZM9.83324 16.1333H37.3666V12.2H9.83324V16.1333ZM23.5999 27.9334C23.0427 27.9334 22.5756 27.7449 22.1987 27.3679C21.8217 26.991 21.6333 26.5239 21.6333 25.9667C21.6333 25.4095 21.8217 24.9424 22.1987 24.5654C22.5756 24.1885 23.0427 24 23.5999 24C24.1572 24 24.6242 24.1885 25.0012 24.5654C25.3781 24.9424 25.5666 25.4095 25.5666 25.9667C25.5666 26.5239 25.3781 26.991 25.0012 27.3679C24.6242 27.7449 24.1572 27.9334 23.5999 27.9334ZM15.7333 27.9334C15.176 27.9334 14.7089 27.7449 14.332 27.3679C13.9551 26.991 13.7666 26.5239 13.7666 25.9667C13.7666 25.4095 13.9551 24.9424 14.332 24.5654C14.7089 24.1885 15.176 24 15.7333 24C16.2905 24 16.7576 24.1885 17.1345 24.5654C17.5115 24.9424 17.6999 25.4095 17.6999 25.9667C17.6999 26.5239 17.5115 26.991 17.1345 27.3679C16.7576 27.7449 16.2905 27.9334 15.7333 27.9334ZM31.4666 27.9334C30.9094 27.9334 30.4423 27.7449 30.0654 27.3679C29.6884 26.991 29.5 26.5239 29.5 25.9667C29.5 25.4095 29.6884 24.9424 30.0654 24.5654C30.4423 24.1885 30.9094 24 31.4666 24C32.0238 24 32.4909 24.1885 32.8679 24.5654C33.2448 24.9424 33.4333 25.4095 33.4333 25.9667C33.4333 26.5239 33.2448 26.991 32.8679 27.3679C32.4909 27.7449 32.0238 27.9334 31.4666 27.9334ZM23.5999 35.8C23.0427 35.8 22.5756 35.6116 22.1987 35.2346C21.8217 34.8577 21.6333 34.3906 21.6333 33.8334C21.6333 33.2761 21.8217 32.8091 22.1987 32.4321C22.5756 32.0552 23.0427 31.8667 23.5999 31.8667C24.1572 31.8667 24.6242 32.0552 25.0012 32.4321C25.3781 32.8091 25.5666 33.2761 25.5666 33.8334C25.5666 34.3906 25.3781 34.8577 25.0012 35.2346C24.6242 35.6116 24.1572 35.8 23.5999 35.8ZM15.7333 35.8C15.176 35.8 14.7089 35.6116 14.332 35.2346C13.9551 34.8577 13.7666 34.3906 13.7666 33.8334C13.7666 33.2761 13.9551 32.8091 14.332 32.4321C14.7089 32.0552 15.176 31.8667 15.7333 31.8667C16.2905 31.8667 16.7576 32.0552 17.1345 32.4321C17.5115 32.8091 17.6999 33.2761 17.6999 33.8334C17.6999 34.3906 17.5115 34.8577 17.1345 35.2346C16.7576 35.6116 16.2905 35.8 15.7333 35.8ZM31.4666 35.8C30.9094 35.8 30.4423 35.6116 30.0654 35.2346C29.6884 34.8577 29.5 34.3906 29.5 33.8334C29.5 33.2761 29.6884 32.8091 30.0654 32.4321C30.4423 32.0552 30.9094 31.8667 31.4666 31.8667C32.0238 31.8667 32.4909 32.0552 32.8679 32.4321C33.2448 32.8091 33.4333 33.2761 33.4333 33.8334C33.4333 34.3906 33.2448 34.8577 32.8679 35.2346C32.4909 35.6116 32.0238 35.8 31.4666 35.8Z" fill="#07B365"/>
</g>
</svg>
