<svg width="213" height="80" viewBox="0 0 213 80" fill="none" xmlns="http://www.w3.org/2000/svg">
<g clip-path="url(#clip0_239_54)">
<path fill-rule="evenodd" clip-rule="evenodd" d="M17.5563 9.01654C17.206 8.96502 16.8915 9.23659 16.8915 9.59073V23.6892C16.8915 23.9771 17.1026 24.2215 17.3875 24.2634L21.7353 24.9027C21.7411 24.9036 21.7455 24.9086 21.7454 24.9146V39.013C21.7454 39.3009 21.9565 39.5453 22.2413 39.5872L26.5893 40.2266C26.5951 40.2274 26.5994 40.2324 26.5993 40.2383V54.3368C26.5993 54.6247 26.8104 54.8691 27.0953 54.9109L31.4432 55.5503C31.449 55.5512 31.4532 55.5562 31.4532 55.562V69.6605C31.4532 69.9484 31.6643 70.1928 31.9492 70.2347L36.4189 70.892C36.7693 70.9435 37.0837 70.6719 37.0837 70.3178V56.2193C37.0837 55.9314 36.8727 55.687 36.5878 55.6451L32.2399 55.0058C32.2341 55.0049 32.2298 54.9999 32.2298 54.994V40.8956C32.2298 40.6077 32.0188 40.3633 31.7339 40.3214L27.386 39.682C27.3802 39.6812 27.3759 39.6762 27.3759 39.6703V25.5719C27.3759 25.2839 27.1648 25.0395 26.88 24.9977L22.5322 24.3583C22.5263 24.3574 22.522 24.3524 22.522 24.3465V10.248C22.522 9.96011 22.311 9.71572 22.0261 9.67384L17.5563 9.01654Z" fill="#07B365"/>
<path fill-rule="evenodd" clip-rule="evenodd" d="M11.261 24.9145C11.261 24.5603 11.5754 24.2888 11.9258 24.3403L16.3956 24.9976C16.6804 25.0395 16.8915 25.2838 16.8915 25.5718V39.6702C16.8915 39.6761 16.8958 39.6812 16.9017 39.682L21.2495 40.3214C21.5343 40.3633 21.7454 40.6077 21.7454 40.8956V54.994C21.7454 54.9999 21.7497 55.0049 21.7554 55.0057L26.1034 55.6451C26.3883 55.687 26.5993 55.9314 26.5993 56.2193V70.3178C26.5993 70.6719 26.2849 70.9435 25.9345 70.8919L21.4648 70.2347C21.1799 70.1928 20.9688 69.9484 20.9688 69.6605V55.562C20.9688 55.5562 20.9646 55.5512 20.9588 55.5503L16.6108 54.9109C16.326 54.869 16.1149 54.6246 16.1149 54.3367V40.2383C16.1149 40.2324 16.1106 40.2273 16.1048 40.2265L11.7569 39.5871C11.4721 39.5452 11.261 39.3008 11.261 39.0129V24.9145Z" fill="#07B365"/>
<path fill-rule="evenodd" clip-rule="evenodd" d="M6.29531 39.6641C5.94494 39.6125 5.63051 39.8841 5.63051 40.2383V54.3367C5.63051 54.6246 5.84159 54.869 6.12644 54.9109L10.4743 55.5503C10.4801 55.5511 10.4844 55.5562 10.4844 55.5621V69.6605C10.4844 69.9484 10.6955 70.1928 10.9803 70.2347L15.4501 70.892C15.8005 70.9435 16.1149 70.672 16.1149 70.3178V56.2194C16.1149 55.9315 15.9038 55.6871 15.619 55.6452L11.2712 55.0058C11.2653 55.005 11.261 54.9999 11.261 54.994V40.8956C11.261 40.6076 11.0499 40.3632 10.7651 40.3214L6.29531 39.6641Z" fill="#07B365"/>
<path d="M0 55.5621C0 55.2079 0.314428 54.9363 0.664803 54.9879L5.13459 55.6452C5.41944 55.687 5.63052 55.9314 5.63052 56.2194V70.3178C5.63052 70.6719 5.31609 70.9435 4.96571 70.892L0.49593 70.2347C0.211079 70.1928 0 69.9484 0 69.6605V55.5621Z" fill="#07B365"/>
<g clip-path="url(#clip1_239_54)">
<path d="M58.0517 26.58C57.2517 26.58 56.5264 26.42 55.8757 26.1C55.2251 25.78 54.6597 25.348 54.1797 24.804C53.7104 24.2493 53.3477 23.6307 53.0917 22.948C52.8357 22.2547 52.7077 21.5453 52.7077 20.82C52.7077 20.0627 52.8411 19.3427 53.1077 18.66C53.3851 17.9667 53.7637 17.3533 54.2437 16.82C54.7344 16.276 55.3051 15.8493 55.9557 15.54C56.6064 15.22 57.3157 15.06 58.0837 15.06C58.8837 15.06 59.6091 15.2253 60.2597 15.556C60.9104 15.8867 61.4704 16.3293 61.9397 16.884C62.4091 17.4387 62.7717 18.0573 63.0277 18.74C63.2837 19.4227 63.4117 20.1213 63.4117 20.836C63.4117 21.5933 63.2784 22.3187 63.0117 23.012C62.7451 23.6947 62.3664 24.308 61.8757 24.852C61.3957 25.3853 60.8304 25.8067 60.1797 26.116C59.5291 26.4253 58.8197 26.58 58.0517 26.58ZM54.1637 20.82C54.1637 21.396 54.2544 21.956 54.4357 22.5C54.6277 23.0333 54.8944 23.508 55.2357 23.924C55.5771 24.34 55.9877 24.6707 56.4677 24.916C56.9477 25.1613 57.4811 25.284 58.0677 25.284C58.6757 25.284 59.2197 25.156 59.6997 24.9C60.1797 24.644 60.5851 24.3027 60.9157 23.876C61.2571 23.4493 61.5131 22.9693 61.6837 22.436C61.8651 21.9027 61.9557 21.364 61.9557 20.82C61.9557 20.244 61.8597 19.6893 61.6677 19.156C61.4864 18.6227 61.2197 18.148 60.8677 17.732C60.5264 17.3053 60.1157 16.9747 59.6357 16.74C59.1664 16.4947 58.6437 16.372 58.0677 16.372C57.4597 16.372 56.9157 16.5 56.4357 16.756C55.9557 17.0013 55.5451 17.3373 55.2037 17.764C54.8731 18.1907 54.6171 18.6707 54.4357 19.204C54.2544 19.7267 54.1637 20.2653 54.1637 20.82ZM65.4125 26.5V15.14H70.1485C70.6498 15.14 71.1085 15.2467 71.5245 15.46C71.9405 15.6627 72.3032 15.94 72.6125 16.292C72.9218 16.6333 73.1618 17.0227 73.3325 17.46C73.5032 17.8867 73.5885 18.324 73.5885 18.772C73.5885 19.3907 73.4498 19.9827 73.1725 20.548C72.8952 21.1027 72.5058 21.556 72.0045 21.908C71.5032 22.2493 70.9165 22.42 70.2445 22.42H66.8525V26.5H65.4125ZM66.8525 21.14H70.1645C70.5592 21.14 70.9005 21.0333 71.1885 20.82C71.4872 20.6067 71.7165 20.3187 71.8765 19.956C72.0472 19.5933 72.1325 19.1987 72.1325 18.772C72.1325 18.324 72.0365 17.924 71.8445 17.572C71.6525 17.2093 71.4018 16.9267 71.0925 16.724C70.7832 16.5213 70.4418 16.42 70.0685 16.42H66.8525V21.14ZM74.6452 20.74C74.6452 20.0467 74.7626 19.3693 74.9972 18.708C75.2426 18.036 75.5946 17.428 76.0532 16.884C76.5226 16.3293 77.0932 15.892 77.7652 15.572C78.4372 15.2413 79.1999 15.076 80.0532 15.076C81.0666 15.076 81.9359 15.3107 82.6612 15.78C83.3866 16.2387 83.9252 16.8307 84.2772 17.556L83.1412 18.292C82.9172 17.812 82.6292 17.4333 82.2772 17.156C81.9359 16.868 81.5626 16.6653 81.1572 16.548C80.7626 16.4307 80.3732 16.372 79.9892 16.372C79.3599 16.372 78.7999 16.5 78.3092 16.756C77.8292 17.012 77.4239 17.3533 77.0932 17.78C76.7626 18.2067 76.5119 18.6867 76.3412 19.22C76.1812 19.7427 76.1012 20.2707 76.1012 20.804C76.1012 21.3907 76.1972 21.956 76.3892 22.5C76.5919 23.044 76.8692 23.524 77.2212 23.94C77.5732 24.356 77.9892 24.6867 78.4692 24.932C78.9492 25.1773 79.4719 25.3 80.0372 25.3C80.4319 25.3 80.8372 25.2307 81.2532 25.092C81.6692 24.9533 82.0586 24.74 82.4212 24.452C82.7839 24.1533 83.0719 23.7693 83.2852 23.3L84.4852 23.956C84.2506 24.5213 83.8879 25.0013 83.3972 25.396C82.9066 25.7907 82.3572 26.0893 81.7492 26.292C81.1519 26.4947 80.5599 26.596 79.9732 26.596C79.1946 26.596 78.4799 26.4307 77.8292 26.1C77.1786 25.7587 76.6132 25.3107 76.1332 24.756C75.6639 24.1907 75.2959 23.5613 75.0292 22.868C74.7732 22.164 74.6452 21.4547 74.6452 20.74ZM86.2875 26.5V15.14H87.7275V20.052H89.2475L92.9915 15.14H94.6555L90.4315 20.644L94.9435 26.5H93.1835L89.2795 21.364H87.7275V26.5H86.2875ZM96.7894 26.5V15.14H98.2294V24.5L104.805 15.14H106.149V26.5H104.709V17.316L98.2134 26.5H96.7894ZM109.024 26.5V15.14H110.464V24.5L117.04 15.14H118.384V26.5H116.944V17.316L110.448 26.5H109.024ZM113.712 14.292C113.157 14.292 112.688 14.2067 112.304 14.036C111.92 13.8653 111.632 13.6307 111.44 13.332C111.248 13.0333 111.152 12.7027 111.152 12.34H112.256C112.256 12.6173 112.357 12.8733 112.56 13.108C112.773 13.332 113.157 13.444 113.712 13.444C114.245 13.444 114.618 13.3427 114.832 13.14C115.045 12.9267 115.152 12.66 115.152 12.34H116.256C116.256 12.7027 116.16 13.0333 115.968 13.332C115.776 13.6307 115.493 13.8653 115.12 14.036C114.746 14.2067 114.277 14.292 113.712 14.292ZM53.5237 45.5V34.14H54.9637V43.5L61.5397 34.14H62.8837V45.5H61.4437V36.316L54.9477 45.5H53.5237ZM74.8141 34.14V45.5H73.3741V40.332H67.1181V45.5H65.6781V34.14H67.1181V39.052H73.3741V34.14H74.8141ZM76.7375 47.676V44.22H77.2495C77.5482 44.22 77.8095 44.1027 78.0335 43.868C78.2575 43.6227 78.4495 43.2387 78.6095 42.716C78.7695 42.1827 78.8975 41.4733 78.9935 40.588C79.0895 39.7027 79.1588 38.6093 79.2015 37.308L79.2815 34.14H86.3215V44.22H87.7295V47.676H86.4495V45.5H78.0175V47.676H76.7375ZM79.1695 44.22H84.8815V35.42H80.6095L80.5615 37.484C80.5295 38.828 80.4602 39.9533 80.3535 40.86C80.2468 41.7667 80.0975 42.492 79.9055 43.036C79.7135 43.58 79.4682 43.9747 79.1695 44.22ZM90.8629 45.548V44.332H91.5829C91.8495 44.332 92.0469 44.268 92.1749 44.14C92.3135 44.0013 92.4575 43.7987 92.6069 43.532L93.0229 42.636L88.2869 34.14H89.8709L93.6789 41.164L96.8789 34.14H98.3989L93.7109 44.22C93.4762 44.7 93.2255 45.0413 92.9589 45.244C92.7029 45.4467 92.3455 45.548 91.8869 45.548H90.8629ZM98.864 39.74C98.864 39.0467 98.9813 38.3693 99.216 37.708C99.4613 37.036 99.8133 36.428 100.272 35.884C100.741 35.3293 101.312 34.892 101.984 34.572C102.656 34.2413 103.419 34.076 104.272 34.076C105.285 34.076 106.155 34.3107 106.88 34.78C107.605 35.2387 108.144 35.8307 108.496 36.556L107.36 37.292C107.136 36.812 106.848 36.4333 106.496 36.156C106.155 35.868 105.781 35.6653 105.376 35.548C104.981 35.4307 104.592 35.372 104.208 35.372C103.579 35.372 103.019 35.5 102.528 35.756C102.048 36.012 101.643 36.3533 101.312 36.78C100.981 37.2067 100.731 37.6867 100.56 38.22C100.4 38.7427 100.32 39.2707 100.32 39.804C100.32 40.3907 100.416 40.956 100.608 41.5C100.811 42.044 101.088 42.524 101.44 42.94C101.792 43.356 102.208 43.6867 102.688 43.932C103.168 44.1773 103.691 44.3 104.256 44.3C104.651 44.3 105.056 44.2307 105.472 44.092C105.888 43.9533 106.277 43.74 106.64 43.452C107.003 43.1533 107.291 42.7693 107.504 42.3L108.704 42.956C108.469 43.5213 108.107 44.0013 107.616 44.396C107.125 44.7907 106.576 45.0893 105.968 45.292C105.371 45.4947 104.779 45.596 104.192 45.596C103.413 45.596 102.699 45.4307 102.048 45.1C101.397 44.7587 100.832 44.3107 100.352 43.756C99.8827 43.1907 99.5147 42.5613 99.248 41.868C98.992 41.164 98.864 40.4547 98.864 39.74ZM118.698 35.42H114.778V45.5H113.338V35.42H109.418V34.14H118.698V35.42ZM120.334 45.5V34.14H125.07C125.572 34.14 126.03 34.2467 126.446 34.46C126.862 34.6627 127.225 34.94 127.534 35.292C127.844 35.6333 128.084 36.0227 128.254 36.46C128.425 36.8867 128.51 37.324 128.51 37.772C128.51 38.3907 128.372 38.9827 128.094 39.548C127.817 40.1027 127.428 40.556 126.926 40.908C126.425 41.2493 125.838 41.42 125.166 41.42H121.774V45.5H120.334ZM121.774 40.14H125.086C125.481 40.14 125.822 40.0333 126.11 39.82C126.409 39.6067 126.638 39.3187 126.798 38.956C126.969 38.5933 127.054 38.1987 127.054 37.772C127.054 37.324 126.958 36.924 126.766 36.572C126.574 36.2093 126.324 35.9267 126.014 35.724C125.705 35.5213 125.364 35.42 124.99 35.42H121.774V40.14ZM130.383 45.5V34.14H131.823V43.5L138.399 34.14H139.743V45.5H138.303V36.316L131.807 45.5H130.383ZM145.993 34.14H147.209L151.849 45.5H150.313L148.969 42.172H144.201L142.873 45.5H141.337L145.993 34.14ZM148.649 41.052L146.601 35.804L144.489 41.052H148.649ZM160.886 45.5V35.42H156.646L156.582 37.676C156.528 39.2227 156.411 40.508 156.23 41.532C156.059 42.5453 155.808 43.3453 155.478 43.932C155.158 44.508 154.758 44.9187 154.278 45.164C153.798 45.4093 153.227 45.532 152.566 45.532V44.268C152.971 44.268 153.328 44.1667 153.638 43.964C153.947 43.7613 154.208 43.4093 154.422 42.908C154.646 42.396 154.822 41.6867 154.95 40.78C155.078 39.8733 155.163 38.716 155.206 37.308L155.302 34.14H162.326V45.5H160.886ZM165.053 45.5V34.14H166.493V38.444H169.213C170.045 38.444 170.738 38.5933 171.293 38.892C171.848 39.18 172.264 39.5907 172.541 40.124C172.829 40.6467 172.973 41.26 172.973 41.964C172.973 42.6253 172.834 43.228 172.557 43.772C172.28 44.3053 171.869 44.7267 171.325 45.036C170.781 45.3453 170.109 45.5 169.309 45.5H165.053ZM166.493 44.3H169.117C169.682 44.3 170.141 44.1933 170.493 43.98C170.845 43.756 171.101 43.468 171.261 43.116C171.421 42.7533 171.501 42.3693 171.501 41.964C171.501 41.5587 171.426 41.18 171.277 40.828C171.138 40.476 170.893 40.1933 170.541 39.98C170.189 39.756 169.709 39.644 169.101 39.644H166.493V44.3ZM184.033 34.14V45.5H182.593V40.332H176.337V45.5H174.897V34.14H176.337V39.052H182.593V34.14H184.033ZM186.756 45.5V34.14H188.196V38.444H190.916C191.748 38.444 192.442 38.5933 192.996 38.892C193.551 39.18 193.967 39.5907 194.244 40.124C194.532 40.6467 194.676 41.26 194.676 41.964C194.676 42.6253 194.538 43.228 194.26 43.772C193.983 44.3053 193.572 44.7267 193.028 45.036C192.484 45.3453 191.812 45.5 191.012 45.5H186.756ZM188.196 44.3H190.82C191.386 44.3 191.844 44.1933 192.196 43.98C192.548 43.756 192.804 43.468 192.964 43.116C193.124 42.7533 193.204 42.3693 193.204 41.964C193.204 41.5587 193.13 41.18 192.98 40.828C192.842 40.476 192.596 40.1933 192.244 39.98C191.892 39.756 191.412 39.644 190.804 39.644H188.196V44.3ZM196.564 45.5V34.156H198.004V45.5H196.564ZM200.805 45.5V34.14H202.245V43.5L208.821 34.14H210.165V45.5H208.725V36.316L202.229 45.5H200.805ZM205.493 33.292C204.938 33.292 204.469 33.2067 204.085 33.036C203.701 32.8653 203.413 32.6307 203.221 32.332C203.029 32.0333 202.933 31.7027 202.933 31.34H204.037C204.037 31.6173 204.138 31.8733 204.341 32.108C204.554 32.332 204.938 32.444 205.493 32.444C206.026 32.444 206.4 32.3427 206.613 32.14C206.826 31.9267 206.933 31.66 206.933 31.34H208.037C208.037 31.7027 207.941 32.0333 207.749 32.332C207.557 32.6307 207.274 32.8653 206.901 33.036C206.528 33.2067 206.058 33.292 205.493 33.292ZM53.4437 64.5V53.14H54.8837V58.052H56.4037L60.1477 53.14H61.8117L57.5877 58.644L62.0997 64.5H60.3397L56.4357 59.364H54.8837V64.5H53.4437ZM67.833 64.58C67.033 64.58 66.3077 64.42 65.657 64.1C65.0063 63.78 64.441 63.348 63.961 62.804C63.4917 62.2493 63.129 61.6307 62.873 60.948C62.617 60.2547 62.489 59.5453 62.489 58.82C62.489 58.0627 62.6223 57.3427 62.889 56.66C63.1663 55.9667 63.545 55.3533 64.025 54.82C64.5157 54.276 65.0863 53.8493 65.737 53.54C66.3877 53.22 67.097 53.06 67.865 53.06C68.665 53.06 69.3903 53.2253 70.041 53.556C70.6917 53.8867 71.2517 54.3293 71.721 54.884C72.1903 55.4387 72.553 56.0573 72.809 56.74C73.065 57.4227 73.193 58.1213 73.193 58.836C73.193 59.5933 73.0597 60.3187 72.793 61.012C72.5263 61.6947 72.1477 62.308 71.657 62.852C71.177 63.3853 70.6117 63.8067 69.961 64.116C69.3103 64.4253 68.601 64.58 67.833 64.58ZM63.945 58.82C63.945 59.396 64.0357 59.956 64.217 60.5C64.409 61.0333 64.6757 61.508 65.017 61.924C65.3583 62.34 65.769 62.6707 66.249 62.916C66.729 63.1613 67.2623 63.284 67.849 63.284C68.457 63.284 69.001 63.156 69.481 62.9C69.961 62.644 70.3663 62.3027 70.697 61.876C71.0383 61.4493 71.2943 60.9693 71.465 60.436C71.6463 59.9027 71.737 59.364 71.737 58.82C71.737 58.244 71.641 57.6893 71.449 57.156C71.2677 56.6227 71.001 56.148 70.649 55.732C70.3077 55.3053 69.897 54.9747 69.417 54.74C68.9477 54.4947 68.425 54.372 67.849 54.372C67.241 54.372 66.697 54.5 66.217 54.756C65.737 55.0013 65.3263 55.3373 64.985 55.764C64.6543 56.1907 64.3983 56.6707 64.217 57.204C64.0357 57.7267 63.945 58.2653 63.945 58.82ZM82.7137 64.5V54.42H78.4737L78.4097 56.676C78.3564 58.2227 78.2391 59.508 78.0577 60.532C77.8871 61.5453 77.6364 62.3453 77.3057 62.932C76.9857 63.508 76.5857 63.9187 76.1057 64.164C75.6257 64.4093 75.0551 64.532 74.3937 64.532V63.268C74.7991 63.268 75.1564 63.1667 75.4657 62.964C75.7751 62.7613 76.0364 62.4093 76.2497 61.908C76.4737 61.396 76.6497 60.6867 76.7777 59.78C76.9057 58.8733 76.9911 57.716 77.0337 56.308L77.1297 53.14H84.1537V64.5H82.7137ZM94.4012 64.5V54.42H90.1612L90.0972 56.676C90.0439 58.2227 89.9266 59.508 89.7452 60.532C89.5746 61.5453 89.3239 62.3453 88.9932 62.932C88.6732 63.508 88.2732 63.9187 87.7932 64.164C87.3132 64.4093 86.7426 64.532 86.0812 64.532V63.268C86.4866 63.268 86.8439 63.1667 87.1532 62.964C87.4626 62.7613 87.7239 62.4093 87.9372 61.908C88.1612 61.396 88.3372 60.6867 88.4652 59.78C88.5932 58.8733 88.6786 57.716 88.7212 56.308L88.8172 53.14H95.8412V64.5H94.4012ZM106.281 63.22V64.5H98.5687V53.14H106.137V54.42H100.009V58.1H105.337V59.3H100.009V63.22H106.281ZM107.456 66.676V63.22H107.968C108.267 63.22 108.528 63.1027 108.752 62.868C108.976 62.6227 109.168 62.2387 109.328 61.716C109.488 61.1827 109.616 60.4733 109.712 59.588C109.808 58.7027 109.878 57.6093 109.92 56.308L110 53.14H117.04V63.22H118.448V66.676H117.168V64.5H108.736V66.676H107.456ZM109.888 63.22H115.6V54.42H111.328L111.28 56.484C111.248 57.828 111.179 58.9533 111.072 59.86C110.966 60.7667 110.816 61.492 110.624 62.036C110.432 62.58 110.187 62.9747 109.888 63.22ZM119.406 64.5L123.806 58.628L119.678 53.14H121.374L125.006 58.052H126.382V53.14H127.822V58.052H129.182L132.83 53.14H134.51L130.382 58.628L134.798 64.5H133.118L129.214 59.364H127.822V64.5H126.382V59.364H124.974L121.07 64.5H119.406Z" fill="#07B365"/>
</g>
</g>
<defs>
<clipPath id="clip0_239_54">
<rect width="212.084" height="80" fill="white"/>
</clipPath>
<clipPath id="clip1_239_54">
<rect width="160" height="80" fill="white" transform="translate(52.0837)"/>
</clipPath>
</defs>
</svg>
