<svg width="32" height="32" viewBox="0 0 32 32" fill="none" xmlns="http://www.w3.org/2000/svg">
<path d="M15.8834 0.152588C7.25462 0.152588 0.251587 7.15562 0.251587 15.7844C0.251587 24.4131 7.25462 31.4161 15.8834 31.4161C24.5121 31.4161 31.5151 24.4131 31.5151 15.7844C31.5151 7.15562 24.5121 0.152588 15.8834 0.152588ZM23.1365 10.7822C22.902 13.252 21.886 19.2546 21.3701 22.0214C21.1513 23.1938 20.7136 23.5846 20.3071 23.6315C19.4005 23.7097 18.7127 23.0375 17.8373 22.4591C16.4617 21.5525 15.6801 20.9897 14.3514 20.1144C12.8039 19.0983 13.8043 18.5355 14.6953 17.6289C14.9298 17.3944 18.9316 13.7522 19.0097 13.424C19.0206 13.3742 19.0191 13.3226 19.0055 13.2736C18.9919 13.2246 18.9665 13.1796 18.9316 13.1426C18.8378 13.0644 18.7127 13.0957 18.6033 13.1113C18.4626 13.1426 16.2742 14.5963 12.0067 17.4726C11.3814 17.8946 10.8187 18.1135 10.3184 18.0979C9.7557 18.0822 8.69274 17.7852 7.89552 17.5195C6.91072 17.2068 6.14476 17.0349 6.20729 16.4878C6.23855 16.2064 6.62935 15.925 7.36404 15.628C11.9285 13.6428 14.9611 12.3297 16.4774 11.7045C20.823 9.89118 21.714 9.57854 22.308 9.57854C22.4331 9.57854 22.7301 9.60981 22.9177 9.76613C23.074 9.89118 23.1209 10.0631 23.1365 10.1882C23.1209 10.282 23.1521 10.5633 23.1365 10.7822Z" fill="#07B365"/>
</svg>
