<svg width="32" height="32" viewBox="0 0 32 32" fill="none" xmlns="http://www.w3.org/2000/svg">
<path d="M21.0021 0.152588H11.4104C2.65036 0.152588 0.56665 2.2363 0.56665 10.9807V20.5724C0.56665 29.3308 2.63473 31.4161 11.3948 31.4161H20.9864C29.7449 31.4161 31.8302 29.348 31.8302 20.588V10.9963C31.8302 2.2363 29.7621 0.152588 21.0021 0.152588ZM25.8057 22.4591H23.525C22.6621 22.4591 22.4027 21.7604 20.8551 20.2128C19.5045 18.9107 18.934 18.7481 18.5916 18.7481C18.1196 18.7481 17.9898 18.8779 17.9898 19.5297V21.5806C17.9898 22.1355 17.81 22.4607 16.361 22.4607C14.9547 22.3662 13.5909 21.9389 12.3821 21.2141C11.1732 20.4893 10.1539 19.4876 9.40798 18.2917C7.63716 16.0876 6.40502 13.5008 5.80954 10.7369C5.80954 10.3945 5.93929 10.085 6.59113 10.085H8.87024C9.45643 10.085 9.66746 10.3461 9.89725 10.9479C11.004 14.2055 12.8923 17.038 13.6583 17.038C13.9521 17.038 14.0803 16.9083 14.0803 16.1751V12.8206C13.9834 11.2902 13.1705 11.1605 13.1705 10.6071C13.181 10.4612 13.2479 10.325 13.357 10.2275C13.4662 10.1301 13.609 10.0789 13.7552 10.085H17.338C17.8272 10.085 17.9898 10.3289 17.9898 10.9151V15.442C17.9898 15.9313 18.2008 16.0939 18.3478 16.0939C18.6417 16.0939 18.8683 15.9313 19.4061 15.3936C20.561 13.9851 21.5047 12.4158 22.2073 10.7353C22.2791 10.5334 22.415 10.3606 22.5942 10.2432C22.7734 10.1258 22.9861 10.0702 23.1999 10.085H25.4806C26.1637 10.085 26.309 10.4273 26.1637 10.9151C25.3344 12.7728 24.3083 14.5362 23.103 16.1751C22.8575 16.5503 22.7591 16.7457 23.103 17.185C23.3296 17.5273 24.1284 18.1948 24.6661 18.8294C25.4476 19.6089 26.0965 20.5107 26.5873 21.4993C26.7827 22.134 26.456 22.4591 25.8057 22.4591Z" fill="#07B365"/>
</svg>
